<svg xmlns="http://www.w3.org/2000/svg" version="1.0" preserveAspectRatio="xMidYMid meet" viewBox="8 11.1 157 78.1">  <g transform="translate(0.000000,96.000000) scale(0.100000,-0.100000)" fill="#139cba" stroke="none"> <path d="M688 840 c-9 -6 -22 -27 -29 -48 -29 -93 -84 -97 -172 -13 l-38 36 7 -55 c14 -115 73 -175 174 -175 95 0 150 57 150 155 0 37 4 52 16 57 13 5 8 11 -22 29 -42 26 -60 29 -86 14z m48 -57 c18 -24 17 -68 -1 -83 -12 -10 -15 -9 -15 8 0 11 -7 25 -15 32 -16 13 -20 42 -8 53 11 12 25 8 39 -10z m-46 -112 c-16 -31 -66 -53 -100 -46 -23 5 -90 64 -90 79 0 1 35 1 78 -2 58 -3 82 0 97 11 18 14 20 14 23 -3 2 -11 -2 -28 -8 -39z"/> <path d="M646 674 c-11 -8 -31 -14 -45 -14 -18 0 -22 -3 -14 -11 12 -12 58 -2 74 17 17 20 8 25 -15 8z"/> <path d="M986 805 c-13 -14 -29 -25 -37 -25 -10 0 -10 -3 -1 -12 7 -7 12 -28 12 -47 0 -20 8 -52 18 -71 24 -49 71 -70 158 -70 79 0 145 17 122 31 -7 5 -20 9 -28 9 -12 0 -12 -2 -2 -9 18 -11 -8 -21 -51 -20 l-32 2 35 7 35 7 -42 2 c-54 1 -91 16 -125 49 -45 42 -34 82 22 82 10 0 53 -18 95 -41 l77 -40 34 26 c19 14 34 30 34 34 0 12 -49 20 -56 10 -3 -5 -12 -5 -22 0 -11 6 -20 4 -28 -7 -12 -16 -15 -16 -41 1 -15 10 -40 23 -55 28 -17 7 -28 18 -28 29 0 20 -35 50 -58 50 -7 0 -23 -11 -36 -25z"/> <path d="M1046 711 c-10 -15 4 -39 32 -57 26 -17 182 -37 210 -27 20 8 14 20 -13 25 -20 4 -23 3 -14 -8 17 -21 9 -18 -83 31 -84 44 -121 54 -132 36z m87 -38 c18 -9 27 -18 21 -20 -16 -5 -64 15 -64 27 0 14 6 13 43 -7z"/> <path d="M420 592 c1 -21 79 -109 130 -147 73 -53 152 -84 234 -91 l61 -5 -85 26 c-107 33 -209 92 -282 166 -32 32 -58 54 -58 51z"/> <path d="M1265 550 c-56 -62 -229 -135 -355 -149 l-75 -8 80 -2 c92 -1 177 18 246 55 47 26 152 124 133 124 -6 0 -19 -9 -29 -20z"/> <path d="M1005 502 c-110 -39 -231 -41 -385 -7 -14 3 -7 -3 16 -14 125 -58 303 -48 419 24 49 30 40 29 -50 -3z"/> <path d="M80 174 l0 -106 54 4 c30 3 62 10 70 17 23 19 20 68 -4 81 -19 10 -19 11 0 30 38 38 1 80 -72 80 l-48 0 0 -106z m104 59 c9 -23 -12 -43 -45 -43 -26 0 -29 3 -29 33 0 32 1 33 34 29 19 -2 37 -11 40 -19z m0 -79 c25 -25 4 -54 -39 -54 -33 0 -35 2 -35 35 0 32 2 35 29 35 16 0 37 -7 45 -16z"/> <path d="M303 268 c-32 -15 -56 -73 -49 -113 9 -46 57 -85 105 -85 45 0 79 23 97 66 39 92 -59 177 -153 132z m108 -37 c32 -33 37 -65 13 -99 -35 -51 -109 -48 -133 4 -14 31 -14 47 0 78 23 50 78 58 120 17z"/> <path d="M532 255 c-36 -30 -47 -75 -28 -119 29 -69 108 -88 165 -40 39 32 49 80 26 127 -29 61 -110 77 -163 32z m101 -7 c30 -15 46 -39 47 -65 1 -86 -96 -120 -144 -51 -24 34 -19 66 13 99 32 31 50 35 84 17z"/> <path d="M750 175 c0 -87 3 -105 15 -105 11 0 15 13 15 53 l0 52 51 -53 c30 -31 59 -52 72 -52 18 0 12 10 -36 58 l-58 58 53 45 c41 34 48 45 34 47 -12 3 -37 -14 -67 -44 l-49 -48 0 47 c0 35 -4 47 -15 47 -12 0 -15 -18 -15 -105z"/> <path d="M940 175 c0 -90 2 -105 16 -105 14 0 16 11 12 84 -2 47 -1 83 2 81 4 -2 31 -41 60 -85 35 -53 59 -80 71 -80 17 0 19 9 19 105 0 87 -3 105 -15 105 -12 0 -15 -16 -15 -87 l0 -88 -58 87 c-79 122 -92 119 -92 -17z"/> <path d="M1170 175 l0 -105 70 0 c56 0 70 3 70 15 0 12 -13 15 -55 15 l-55 0 0 36 0 36 50 -4 c35 -2 50 1 50 10 0 8 -17 12 -50 12 -49 0 -50 1 -50 30 0 30 1 30 55 30 42 0 55 3 55 15 0 12 -14 15 -70 15 l-70 0 0 -105z"/> <path d="M1357 262 c-35 -39 -15 -81 48 -102 40 -13 47 -43 14 -60 -16 -9 -26 -8 -44 4 -20 13 -25 13 -35 1 -9 -11 -7 -16 9 -24 52 -28 121 -1 121 48 0 32 -11 44 -54 58 -41 13 -55 38 -34 60 14 13 22 14 41 6 30 -14 61 1 37 17 -25 16 -85 12 -103 -8z"/> <path d="M1490 265 c0 -11 11 -15 36 -15 l36 0 -4 -90 c-3 -70 -1 -90 9 -90 10 0 13 23 13 90 l0 90 35 0 c24 0 35 5 35 15 0 12 -16 15 -80 15 -64 0 -80 -3 -80 -15z"/> </g> </svg>