<svg xmlns="http://www.w3.org/2000/svg" version="1.0" preserveAspectRatio="xMidYMid meet" viewBox="64.08 125.91 168.47 55.19">  <g transform="translate(0.000000,300.000000) scale(0.100000,-0.100000)" fill="#23d19d" stroke="none"> <path d="M645 1730 c-13 -21 8 -30 66 -30 80 0 121 -19 143 -64 22 -47 14 -84 -25 -122 -27 -26 -37 -29 -100 -30 -39 -1 -75 -6 -81 -12 -21 -21 4 -32 75 -32 84 0 111 -14 134 -67 11 -27 12 -42 3 -69 -18 -53 -54 -73 -141 -76 -58 -2 -74 -6 -74 -18 0 -13 38 -15 275 -18 151 -1 285 0 297 3 37 9 82 55 94 95 16 51 4 103 -31 144 l-30 33 21 19 c74 67 58 188 -31 234 -36 19 -58 20 -314 20 -172 0 -277 -4 -281 -10z m575 -45 c32 -17 60 -61 60 -95 0 -34 -28 -78 -60 -95 -22 -12 -66 -15 -190 -15 -148 0 -161 -1 -158 -17 3 -16 22 -19 175 -23 164 -5 173 -6 197 -29 34 -32 42 -80 22 -119 -30 -59 -43 -62 -234 -62 l-173 0 21 28 c33 44 36 93 9 146 -14 29 -29 46 -41 46 -24 0 -23 2 13 41 17 18 35 45 41 58 12 33 1 95 -24 126 l-19 25 166 0 c129 0 173 -3 195 -15z"/> <path d="M1437 1733 c-4 -3 -7 -57 -7 -120 l0 -113 58 0 c48 0 62 4 80 23 26 27 28 54 7 84 -10 14 -12 24 -5 28 20 13 11 63 -16 84 -26 20 -102 30 -117 14z m91 -42 c25 -16 9 -46 -26 -49 -30 -3 -32 -1 -32 27 0 26 4 31 23 31 12 0 28 -4 35 -9z m15 -101 c5 -5 6 -17 2 -29 -5 -16 -15 -21 -41 -21 -32 0 -34 2 -34 35 0 34 1 34 33 28 17 -3 36 -9 40 -13z"/> <path d="M1672 1720 c-103 -63 -57 -220 65 -220 38 0 50 5 79 34 28 28 34 42 34 75 0 57 -24 100 -65 117 -47 19 -74 18 -113 -6z m121 -51 c39 -47 5 -129 -54 -129 -41 0 -58 9 -75 41 -18 37 -10 73 24 100 32 25 78 20 105 -12z"/> <path d="M1944 1726 c-45 -20 -64 -53 -64 -109 0 -42 5 -54 34 -83 29 -29 41 -34 79 -34 84 0 141 77 115 155 -23 67 -99 100 -164 71z m99 -46 c33 -26 41 -63 23 -99 -17 -32 -34 -41 -75 -41 -68 0 -99 97 -45 139 33 26 64 27 97 1z"/> <path d="M2155 1728 c-3 -8 -4 -61 -3 -119 3 -90 5 -104 21 -107 14 -3 17 4 17 41 0 27 6 49 14 57 12 9 21 2 52 -44 34 -52 56 -67 68 -48 3 5 -13 36 -36 70 l-40 61 36 32 c20 17 36 37 36 44 0 33 -26 24 -75 -25 l-54 -53 -3 48 c-3 47 -22 72 -33 43z"/> <path d="M1445 1405 c-46 -45 -22 -94 53 -115 22 -5 42 -16 45 -24 14 -36 -58 -50 -88 -16 -20 22 -35 18 -35 -10 0 -47 101 -69 140 -30 12 12 20 33 20 55 0 28 -5 37 -30 50 -16 8 -35 15 -43 15 -7 0 -22 6 -33 14 -18 14 -18 16 -2 32 16 16 22 17 54 5 48 -17 65 -1 28 28 -36 28 -79 27 -109 -4z"/> <path d="M1585 1420 c-10 -16 4 -30 30 -30 24 0 24 -2 27 -97 3 -84 6 -98 21 -101 15 -3 17 7 17 97 l0 101 30 0 c23 0 30 4 30 20 0 18 -7 20 -74 20 -41 0 -78 -4 -81 -10z"/> <path d="M1815 1421 c-88 -39 -98 -173 -15 -216 90 -47 190 20 177 118 -10 74 -97 127 -162 98z m84 -46 c16 -8 31 -22 35 -30 21 -55 -18 -115 -74 -115 -36 0 -80 38 -80 69 0 31 20 68 44 79 29 15 43 14 75 -3z"/> <path d="M2010 1423 c-6 -196 -4 -228 16 -228 16 0 19 7 19 44 0 25 5 46 12 48 6 2 24 -19 40 -46 15 -28 33 -51 40 -51 24 0 24 22 0 59 l-25 37 24 21 c31 28 31 67 -1 98 -19 20 -34 25 -75 25 -27 0 -50 -3 -50 -7z m104 -56 c13 -22 -11 -45 -47 -43 -16 1 -22 7 -22 26 0 14 1 29 3 33 7 14 55 3 66 -16z"/> <path d="M2197 1423 c-4 -3 -7 -58 -7 -120 l0 -114 68 3 c52 2 67 6 67 18 0 11 -13 16 -47 18 -46 3 -48 5 -48 33 0 27 3 29 35 29 28 0 35 4 35 20 0 16 -7 20 -35 20 -32 0 -35 2 -35 30 0 29 2 30 43 30 48 0 58 5 50 26 -5 15 -113 21 -126 7z"/> </g> </svg>